<?xml version="1.0" standalone="no"?><!DOCTYPE svg PUBLIC "-//W3C//DTD SVG 1.1//EN" "http://www.w3.org/Graphics/SVG/1.1/DTD/svg11.dtd"><svg t="1776915618908" class="icon" viewBox="0 0 1077 1024" version="1.1" xmlns="http://www.w3.org/2000/svg" p-id="6361" xmlns:xlink="http://www.w3.org/1999/xlink" width="210.3515625" height="200"><path d="M288.768 669.911579A156.240842 156.240842 0 1 1 438.379789 470.501053l58.745264-63.434106a234.388211 234.388211 0 1 0 2.155789 208.357053l-61.33221-56.373895a156.240842 156.240842 0 0 1-149.180632 110.807579z" fill="#2EBBFB" p-id="6362"></path><path d="M789.611789 279.282526c-129.347368 0-214.824421 136.730947-312.481684 234.388211 78.147368 78.147368 183.242105 234.334316 312.481684 234.334316a234.388211 234.388211 0 1 0 0-468.722527z m-13.904842 385.024c-83.321263 0-150.635789-100.405895-200.488421-150.635789 62.733474-62.787368 117.167158-150.635789 200.865685-150.63579a150.635789 150.635789 0 1 1 0 301.271579h-0.377264z" fill="#2EBBFB" p-id="6363"></path></svg>