<?xml version="1.0" standalone="no"?><!DOCTYPE svg PUBLIC "-//W3C//DTD SVG 1.1//EN" "http://www.w3.org/Graphics/SVG/1.1/DTD/svg11.dtd"><svg t="1775211723245" class="icon" viewBox="0 0 1024 1024" version="1.1" xmlns="http://www.w3.org/2000/svg" p-id="42271" xmlns:xlink="http://www.w3.org/1999/xlink" width="200" height="200"><path d="M757.12 927.84c13.312-34.752 9.92-69.504-0.928-103.904-4.16-13.12-9.92-25.76-16.16-38.08-5.152-10.336-4.736-20 2.88-27.776 21.76-22.304 27.296-50.016 28.736-79.36 1.408-30.24-0.8-60.032-14.944-87.712a73.6 73.6 0 0 0-9.44-14.4c-9.376-11.232-10.176-26.272-0.16-36.608 36.256-37.312 37.536-96.928 14.656-140.928-19.456-37.376-48.192-62.528-91.2-68.352-7.84-1.088-16.128 0.128-24.16 0.832-16.16 1.44-23.04-1.792-29.824-16-26.24-54.848-106.88-90.336-170.88-48.448-20.288 13.248-37.088 28.64-47.168 50.784-4.928 10.976-14.016 15.744-25.376 13.76-89.696-15.616-155.424 91.36-127.456 167.264 5.44 14.72 14.944 28.224 24 41.312 7.552 10.752 8.544 24.16 1.824 34.176-7.232 10.752-15.104 21.792-18.752 33.92-12 39.584-12.48 79.68 1.28 119.04 3.456 9.792 10.24 18.752 16.896 27.008 9.088 11.264 11.456 19.936 4.224 33.824a212.064 212.064 0 0 0-24.256 85.888A111.808 111.808 0 0 0 260.416 928H209.28c-10.56-48.992-4.192-96.288 14.08-142.496a18.816 18.816 0 0 0-1.056-14.464c-29.536-53.344-31.328-109.376-17.376-166.88 3.2-13.312 10.016-25.696 14.304-38.72 1.28-4 1.344-9.984-0.8-13.248-30.4-46.784-32.544-96.864-16.8-148.416a168.096 168.096 0 0 1 57.6-84.544c6.08-4.768 6.496-10.24 5.472-17.28-6.912-49.664-8.224-99.136 10.112-146.944 5.12-13.44 12.224-26.848 21.28-37.952 24.128-29.344 61.888-27.2 85.28 2.688 21.664 27.84 28.864 60.704 34.592 94.24 0.736 4.128 1.28 8.256 2.08 13.888 60.064-35.04 119.712-35.392 179.584-0.352 4-18.592 7.52-36.8 11.936-54.848 5.216-21.12 14.176-41.024 29.248-56.832 29.344-30.752 66.816-24.928 89.984 11.744 16.8 26.656 25.024 56.48 25.952 87.456 0.864 29.504-1.216 59.104-3.296 88.608-0.416 6.688 0.512 10.88 5.376 14.816a164.8 164.8 0 0 1 46.112 56.896c28.896 59.232 31.424 118.016-4.192 176a18.656 18.656 0 0 0-0.8 15.36c27.616 57.6 27.744 116.64 9.792 176.544-3.136 10.464-9.92 19.84-14.784 29.92-1.216 2.496-2.72 5.984-1.888 8.032 20.96 47.232 25.92 96.16 17.28 146.784h-51.104l-0.128-0.16zM310.784 287.904c14.592-1.632 27.52-3.712 40.544-4.48 14.24-0.864 19.872-5.856 19.584-20.288a664.96 664.96 0 0 0-1.92-41.472 154.944 154.944 0 0 0-20.8-66.496c-8.736-14.752-14.592-14.688-21.824 0.48-5.856 12.32-10.656 25.6-13.76 38.88A229.952 229.952 0 0 0 310.816 288v-0.064z m396.576-0.288c0-24.064 1.856-48.352-0.576-72.224-1.92-18.72-8.608-37.12-14.688-55.168-2.048-6.144-8.704-10.752-13.216-16.096-4.704 5.408-10.656 10.112-13.888 16.32-17.216 33.44-20.352 69.76-19.072 106.56 0.192 6.848 2.208 15.488 12.736 16.256 15.296 1.152 30.592 2.72 48.704 4.352z" fill="#808182" p-id="42272"></path><path d="M503.584 645.344c-22.432-0.288-48.832-1.6-74.08-14.72-51.584-27.104-66.368-90.88-30.112-136.32 34.464-43.2 98.688-60.768 154.4-42.528 34.176 11.2 61.856 30.752 75.872 64.384 19.04 45.632 1.792 89.28-39.968 112.448-28.8 15.936-38.816 16.736-86.176 16.736h0.064z m2.72-31.904c9.856 0 18.816 0.704 27.616-0.16 24.224-2.336 46.08-10.816 60.8-31.04 22.592-31.04 8.128-62.592-18.688-83.232-41.344-31.904-109.056-29.12-147.264 10.176-28.576 29.44-20.576 75.776 16.672 93.504 19.84 9.472 40.32 12.384 60.864 10.752zM378.624 480c-0.064 19.264-15.68 36.64-32.8 36.576-17.536-0.128-31.2-12.96-31.04-29.12 0.128-20.8 14.816-36.384 34.048-36.16 16.64 0.128 29.952 12.928 29.888 28.768l-0.064-0.096z m259.2 0c-0.128-16 12.96-28.576 29.824-28.8 18.944-0.192 34.048 15.808 34.112 36.16 0 16.192-13.792 29.152-31.104 29.216-17.152 0.064-32.672-17.248-32.832-36.608z" fill="#808182" p-id="42273"></path><path d="M508.224 580.256c-11.712 0.192-17.6-6.08-14.656-17.312 1.92-7.36 0.864-11.904-5.696-16.448-6.656-4.576-13.44-10.976-7.456-20.16 5.568-8.544 13.792-5.696 21.888-3.552a24.96 24.96 0 0 0 11.456-0.448c7.776-1.92 15.424-3.84 20.736 4.288 5.344 8.256-0.224 14.72-6.016 18.656-8.096 5.568-9.152 11.52-7.168 20.384 2.08 9.088-3.52 14.4-13.088 14.528v0.064z" fill="#808182" p-id="42274"></path></svg>