<?xml version="1.0" standalone="no"?><!DOCTYPE svg PUBLIC "-//W3C//DTD SVG 1.1//EN" "http://www.w3.org/Graphics/SVG/1.1/DTD/svg11.dtd"><svg t="1775210947222" class="icon" viewBox="0 0 1024 1024" version="1.1" xmlns="http://www.w3.org/2000/svg" p-id="22421" xmlns:xlink="http://www.w3.org/1999/xlink" width="200" height="200"><path d="M757.312 275.52m18.176 0l34.752 0q18.176 0 18.176 18.176l0 0q0 18.176-18.176 18.176l-34.752 0q-18.176 0-18.176-18.176l0 0q0-18.176 18.176-18.176Z" fill="#89DDFF" p-id="22422"></path><path d="M224 857.6m18.176 0l176.96 0q18.176 0 18.176 18.176l0 0q0 18.176-18.176 18.176l-176.96 0q-18.176 0-18.176-18.176l0 0q0-18.176 18.176-18.176Z" fill="#FC8289" p-id="22423"></path><path d="M650.688 566.592m18.176 0l105.856 0q18.176 0 18.176 18.176l0 0q0 18.176-18.176 18.176l-105.856 0q-18.176 0-18.176-18.176l0 0q0-18.176 18.176-18.176Z" fill="#9883EC" p-id="22424"></path><path d="M437.312 566.592m18.176 0l141.44 0q18.176 0 18.176 18.176l0 0q0 18.176-18.176 18.176l-141.44 0q-18.176 0-18.176-18.176l0 0q0-18.176 18.176-18.176Z" fill="#FC8289" p-id="22425"></path><path d="M224 566.592m18.176 0l141.44 0q18.176 0 18.176 18.176l0 0q0 18.176-18.176 18.176l-141.44 0q-18.176 0-18.176-18.176l0 0q0-18.176 18.176-18.176Z" fill="#89DDFF" p-id="22426"></path><path d="M224 712.064m18.176 0l176.96 0q18.176 0 18.176 18.176l0 0q0 18.176-18.176 18.176l-176.96 0q-18.176 0-18.176-18.176l0 0q0-18.176 18.176-18.176Z" fill="#9883EC" p-id="22427"></path><path d="M224 421.056m18.176 0l176.96 0q18.176 0 18.176 18.176l0 0q0 18.176-18.176 18.176l-176.96 0q-18.176 0-18.176-18.176l0 0q0-18.176 18.176-18.176Z" fill="#9883EC" p-id="22428"></path><path d="M401.792 202.752m18.176 0l354.752 0q18.176 0 18.176 18.176l0 0q0 18.176-18.176 18.176l-354.752 0q-18.176 0-18.176-18.176l0 0q0-18.176 18.176-18.176Z" fill="#FFCB6B" p-id="22429"></path><path d="M224 202.752m18.176 0l105.856 0q18.176 0 18.176 18.176l0 0q0 18.176-18.176 18.176l-105.856 0q-18.176 0-18.176-18.176l0 0q0-18.176 18.176-18.176Z" fill="#FC8289" p-id="22430"></path><path d="M366.208 784.832m18.176 0l34.752 0q18.176 0 18.176 18.176l0 0q0 18.176-18.176 18.176l-34.752 0q-18.176 0-18.176-18.176l0 0q0-18.176 18.176-18.176Z" fill="#FFCB6B" p-id="22431"></path><path d="M366.208 348.288m18.176 0l34.752 0q18.176 0 18.176 18.176l0 0q0 18.176-18.176 18.176l-34.752 0q-18.176 0-18.176-18.176l0 0q0-18.176 18.176-18.176Z" fill="#89DDFF" p-id="22432"></path><path d="M224 784.832m18.176 0l70.336 0q18.176 0 18.176 18.176l0 0q0 18.176-18.176 18.176l-70.336 0q-18.176 0-18.176-18.176l0 0q0-18.176 18.176-18.176Z" fill="#89DDFF" p-id="22433"></path><path d="M224 348.288m18.176 0l70.336 0q18.176 0 18.176 18.176l0 0q0 18.176-18.176 18.176l-70.336 0q-18.176 0-18.176-18.176l0 0q0-18.176 18.176-18.176Z" fill="#FFCB6B" p-id="22434"></path><path d="M508.416 493.824m18.176 0l283.648 0q18.176 0 18.176 18.176l0 0q0 18.176-18.176 18.176l-283.648 0q-18.176 0-18.176-18.176l0 0q0-18.176 18.176-18.176Z" fill="#89DDFF" p-id="22435"></path><path d="M330.688 493.824m18.176 0l105.856 0q18.176 0 18.176 18.176l0 0q0 18.176-18.176 18.176l-105.856 0q-18.176 0-18.176-18.176l0 0q0-18.176 18.176-18.176Z" fill="#FFCB6B" p-id="22436"></path><path d="M224 493.824m18.176 0l34.752 0q18.176 0 18.176 18.176l0 0q0 18.176-18.176 18.176l-34.752 0q-18.176 0-18.176-18.176l0 0q0-18.176 18.176-18.176Z" fill="#FC8289" p-id="22437"></path><path d="M544 275.52m18.176 0l141.44 0q18.176 0 18.176 18.176l0 0q0 18.176-18.176 18.176l-141.44 0q-18.176 0-18.176-18.176l0 0q0-18.176 18.176-18.176Z" fill="#9883EC" p-id="22438"></path><path d="M224 275.52m18.176 0l248.064 0q18.176 0 18.176 18.176l0 0q0 18.176-18.176 18.176l-248.064 0q-18.176 0-18.176-18.176l0 0q0-18.176 18.176-18.176Z" fill="#89DDFF" p-id="22439"></path><path d="M330.688 639.296m18.176 0l319.232 0q18.176 0 18.176 18.176l0 0q0 18.176-18.176 18.176l-319.232 0q-18.176 0-18.176-18.176l0 0q0-18.176 18.176-18.176Z" fill="#FFCB6B" p-id="22440"></path><path d="M224 639.296m18.176 0l34.752 0q18.176 0 18.176 18.176l0 0q0 18.176-18.176 18.176l-34.752 0q-18.176 0-18.176-18.176l0 0q0-18.176 18.176-18.176Z" fill="#9883EC" p-id="22441"></path><path d="M650.688 348.288m18.176 0l176.96 0q18.176 0 18.176 18.176l0 0q0 18.176-18.176 18.176l-176.96 0q-18.176 0-18.176-18.176l0 0q0-18.176 18.176-18.176Z" fill="#FC8289" p-id="22442"></path><path d="M650.688 421.056m18.176 0l176.96 0q18.176 0 18.176 18.176l0 0q0 18.176-18.176 18.176l-176.96 0q-18.176 0-18.176-18.176l0 0q0-18.176 18.176-18.176Z" fill="#FFCB6B" p-id="22443"></path><path d="M224 130.048m18.176 0l425.856 0q18.176 0 18.176 18.176l0 0q0 18.176-18.176 18.176l-425.856 0q-18.176 0-18.176-18.176l0 0q0-18.176 18.176-18.176Z" fill="#89DDFF" p-id="22444"></path></svg>