<?xml version="1.0" standalone="no"?><!DOCTYPE svg PUBLIC "-//W3C//DTD SVG 1.1//EN" "http://www.w3.org/Graphics/SVG/1.1/DTD/svg11.dtd"><svg t="1775226362823" class="icon" viewBox="0 0 1024 1024" version="1.1" xmlns="http://www.w3.org/2000/svg" p-id="1764" xmlns:xlink="http://www.w3.org/1999/xlink" width="200" height="200"><path d="M372.0704 274.82112C403.2512 346.56256 483.6352 383.10912 558.1824 359.424c74.5472-23.68512 119.12192-99.92192 103.17824-176.50688-15.94368-76.57472-87.22432-128.69632-165.03808-120.65792-77.81376 8.02816-136.93952 73.61536-136.89856 151.83872a384.768 384.768 0 0 0-224.09216 269.58848l58.88 13.6192a324.79232 324.79232 0 0 1 177.85856-222.48448z m448.08192 321.77152a152.56576 152.56576 0 1 0 76.4928 20.5312 383.58016 383.58016 0 0 0-116.5824-325.44768l-41.92256 43.65312a324.05504 324.05504 0 0 1 99.7376 262.3488 154.18368 154.18368 0 0 0-17.72544-1.08544zM203.83744 902.37952a151.3472 151.3472 0 0 0 81.78688-23.77728 387.35872 387.35872 0 0 0 235.23328 79.42144 377.0368 377.0368 0 0 0 114.42176-17.07008l-18.15552-57.58976c-100.48512 31.10912-206.37696 11.33568-287.63136-47.22688a152.56576 152.56576 0 1 0-125.76768 66.12992l0.1024 0.1024z" fill="#ffffff" p-id="1765"></path></svg>