<?xml version="1.0" standalone="no"?><!DOCTYPE svg PUBLIC "-//W3C//DTD SVG 1.1//EN" "http://www.w3.org/Graphics/SVG/1.1/DTD/svg11.dtd"><svg t="1775211541872" class="icon" viewBox="0 0 1024 1024" version="1.1" xmlns="http://www.w3.org/2000/svg" p-id="35331" xmlns:xlink="http://www.w3.org/1999/xlink" width="200" height="200"><path d="M672.646021 347.695881q25.859842 25.859842 0 51.719685L414.048597 658.01099q-25.859842 25.859842-51.719685 0t0-51.719685l258.598424-258.597424q25.858842-25.859842 51.718685 0z" fill="#42B983" p-id="35332"></path><path d="M959.121275 64.949604a221.621649 221.621649 0 0 0-313.41509 0L450.416375 260.314414a39.130762 39.130762 0 0 0 0 55.588661 39.057762 39.057762 0 0 0 55.587662 0l195.289809-195.436809a143.139128 143.139128 0 0 1 244.149513 101.156383c0 38.252767-14.920909 74.166548-41.983744 101.155384L708.315804 518.140843a39.130762 39.130762 0 0 0 27.79383 66.997591 39.42376 39.42376 0 0 0 27.794831-11.40993l195.28881-195.435809a221.767649 221.767649 0 0 0-0.072-313.342091zM322.781153 903.601494c-26.989836 26.989836-62.901617 41.983744-101.082384 41.983744a141.530138 141.530138 0 0 1-101.082384-41.983744 142.627131 142.627131 0 0 1-0.073-202.238768l195.28881-195.362809a39.130762 39.130762 0 0 0 0-55.588662 39.057762 39.057762 0 0 0-55.587661 0L64.955724 645.628066A220.304658 220.304658 0 0 0 0.00612 802.372111c0 59.244639 23.03986 114.979299 64.949604 156.744044a220.816654 220.816654 0 0 0 156.671045 64.876605c56.758654 0 113.589308-21.649868 156.598046-64.876605L573.659624 763.825345a39.42376 39.42376 0 0 0-55.587661-55.587661L322.781153 903.600494z" fill="#42B983" p-id="35333"></path></svg>