<?xml version="1.0" standalone="no"?><!DOCTYPE svg PUBLIC "-//W3C//DTD SVG 1.1//EN" "http://www.w3.org/Graphics/SVG/1.1/DTD/svg11.dtd"><svg t="1776919064080" class="icon" viewBox="0 0 1024 1024" version="1.1" xmlns="http://www.w3.org/2000/svg" p-id="12749" xmlns:xlink="http://www.w3.org/1999/xlink" width="200" height="200"><path d="M960 64c-38.4-38.4-83.2-51.2-134.4-51.2H198.4C147.2 12.8 102.4 32 64 64 32 102.4 12.8 147.2 12.8 198.4v627.2c0 51.2 19.2 96 51.2 134.4 38.4 38.4 83.2 51.2 134.4 51.2h627.2c51.2 0 96-19.2 134.4-51.2 38.4-38.4 51.2-83.2 51.2-134.4V198.4c0-51.2-19.2-96-51.2-134.4z m-761.6 44.8h627.2c25.6 0 44.8 6.4 64 25.6 19.2 19.2 25.6 38.4 25.6 64v70.4H108.8V198.4c0-25.6 6.4-44.8 25.6-64 19.2-12.8 38.4-25.6 64-25.6zM108.8 825.6V364.8h806.4v460.8c0 25.6-6.4 44.8-25.6 64-19.2 19.2-38.4 25.6-64 25.6H198.4c-25.6 0-44.8-6.4-64-25.6-12.8-19.2-25.6-38.4-25.6-64z" fill="#408EF5" p-id="12750"></path><path d="M422.4 812.8h19.2c19.2 0 32-6.4 44.8-19.2l121.6-243.2c6.4-12.8 6.4-25.6 6.4-38.4-6.4-12.8-12.8-19.2-25.6-25.6-12.8-6.4-25.6-12.8-44.8-6.4-6.4 6.4-19.2 12.8-25.6 25.6l-115.2 243.2c-6.4 12.8-12.8 25.6-6.4 38.4 6.4 12.8 12.8 25.6 25.6 25.6z m19.2-6.4h12.8c0-6.4-6.4 0-12.8 0z m-25.6-51.2L531.2 512l19.2-19.2-19.2 19.2-115.2 243.2c-12.8 19.2 0 44.8 12.8 51.2-12.8-12.8-25.6-32-12.8-51.2zM332.8 819.2c12.8 0 25.6-6.4 38.4-19.2 6.4-12.8 12.8-25.6 12.8-38.4 0-12.8-6.4-25.6-12.8-32l-76.8-51.2 76.8-89.6c6.4-12.8 12.8-25.6 12.8-38.4 0-12.8-6.4-25.6-12.8-32-25.6-19.2-51.2-19.2-70.4 0l-115.2 134.4c-6.4 6.4-12.8 19.2-12.8 38.4 0 6.4 0 12.8 6.4 19.2l12.8 12.8 115.2 89.6s12.8 6.4 25.6 6.4z m-153.6-134.4c0-6.4 0-19.2 6.4-25.6l115.2-134.4c6.4-6.4 12.8-6.4 19.2-6.4-6.4 0-12.8 6.4-12.8 6.4L192 659.2c-12.8 6.4-12.8 19.2-12.8 25.6 0 6.4 6.4 19.2 12.8 19.2l115.2 89.6c6.4 6.4 12.8 6.4 19.2 6.4h0c-6.4 0-12.8 0-19.2-6.4L192 704c-6.4 0-12.8-12.8-12.8-19.2zM748.8 678.4l-76.8 51.2c-6.4 6.4-12.8 19.2-19.2 32 0 12.8 0 25.6 12.8 38.4 12.8 12.8 25.6 19.2 38.4 19.2 12.8 0 25.6-6.4 32-12.8l115.2-83.2c12.8-12.8 19.2-25.6 19.2-38.4 0-19.2-6.4-32-12.8-38.4L742.4 512c-19.2-19.2-44.8-19.2-70.4 0-12.8 12.8-12.8 19.2-12.8 32s6.4 25.6 12.8 32l76.8 102.4z m-76.8-153.6c-12.8 12.8-12.8 32 0 51.2l96 102.4-89.6 64c-12.8 12.8-19.2 32-6.4 51.2 6.4 6.4 12.8 12.8 25.6 12.8h12.8-12.8c-12.8 0-19.2-6.4-25.6-12.8-12.8-12.8-6.4-32 6.4-51.2l76.8-57.6 12.8-6.4-6.4-12.8L672 576c-12.8-12.8-12.8-38.4 0-51.2z" fill="#408EF5" p-id="12751"></path></svg>