<?xml version="1.0" standalone="no"?><!DOCTYPE svg PUBLIC "-//W3C//DTD SVG 1.1//EN" "http://www.w3.org/Graphics/SVG/1.1/DTD/svg11.dtd"><svg t="1775212923587" class="icon" viewBox="0 0 1167 1024" version="1.1" xmlns="http://www.w3.org/2000/svg" p-id="48519" xmlns:xlink="http://www.w3.org/1999/xlink" width="227.9296875" height="200"><path d="M1004.571605 170.22133c-47.086687-92.954342-100.391674-16.229146-164.039971 36.68181 71.76287 131.754067 146.185448 297.591804 80.037518 456.336985-29.884778 71.664362-86.846863 136.211541-169.273193 191.819146-78.941619 53.169539-183.852335 100.05921-312.478782 139.560803 1064.16652-127.148832 643.67403-654.97779 565.754428-824.398744zM752.034767 96.771515l-1.699258-3.2015c-26.744844-36.595616-75.112132-18.408629-88.36142 28.456416-9.358233 33.246353-33.763519 64.103895-58.353507 82.697226 38.048605 76.552807 73.536008 172.967232 75.752432 278.690636 3.952622 190.046007-98.963312 359.651664-306.088094 504.852034 841.108116-231.234545 495.136711-665.074831 378.749847-891.494812z m-115.315593 261.340966zM393.084971 943.679273l0.332463-0.24627c2.130229-1.613064 4.223518-3.238441 6.329121-4.851504l-3.300009 2.52426c1.502243-1.157466 3.029112-2.314931 4.519042-3.472397l-0.332464 0.258583C572.36901 805.300562 639.575898 668.116256 652.615857 541.841681c0-0.246269 0.061567-0.492539 0.086194-0.738808a1.354481 1.354481 0 0 1 0-0.221643 0.837316 0.837316 0 0 0 0 0.172389q1.231346-11.537716 1.773139-23.17394l0.07388-1.391421c0.110821-2.265677 0.197015-4.531355 0.28321-6.797033v-2.696648c0.061567-1.859333 0.110821-3.694039 0.135448-5.553373v-3.694039-4.617549-4.248145-4.161951c0-1.723885-0.086194-3.435457-0.123134-5.147028 0-0.985077-0.061567-1.970154-0.086195-2.955232-0.086194-2.093289-0.172388-4.161951-0.283209-6.242926l-0.073881-1.834706a527.225599 527.225599 0 0 0-10.010847-77.574825c-0.258583-1.231346-0.504852-2.462693-0.763434-3.694039-0.147762-0.714181-0.307837-1.416048-0.467912-2.130229-0.455598-2.16717-0.92351-4.334339-1.428362-6.501509a0.443285 0.443285 0 0 0 0-0.123135q-2.290304-10.158608-5.023893-20.391097c0-0.197015-0.110821-0.394031-0.160075-0.591046-0.788062-2.967545-1.588437-5.922776-2.462693-8.890321-14.923919-53.194166-36.090764-101.844663-57.873282-144.178353-32.606053-63.475908-66.492707-112.779019-82.229314-141.961929-58.821419-96.377485-129.636152-70.900927-124.205914 6.082851C379.380085 204.822164 141.25 297.271654 141.25 297.271654L293.604493 1008.718991l6.636957-1.416049q31.214632-19.393706 59.104629-38.996741 3.533964-2.462693 6.994047-4.925385 10.0601-7.166436 19.800051-14.419067c2.339558-1.748512 4.679116-3.497024 6.994048-5.257849z m-6.994048 5.257849l-0.825002 0.615673 0.825002-0.615673z m0 0" p-id="48520" fill="#a855f7"></path></svg>