<?xml version="1.0" standalone="no"?><!DOCTYPE svg PUBLIC "-//W3C//DTD SVG 1.1//EN" "http://www.w3.org/Graphics/SVG/1.1/DTD/svg11.dtd"><svg t="1775211516685" class="icon" viewBox="0 0 1024 1024" version="1.1" xmlns="http://www.w3.org/2000/svg" p-id="34330" xmlns:xlink="http://www.w3.org/1999/xlink" width="200" height="200"><path d="M982.528 435.882667c-16.896 0-33.194667 9.386667-46.0288 26.333866l-161.0752 213.077334c-26.6752 35.2768-64.546133 55.5008-103.936 55.5008h-0.597333c-39.424 0-77.312-20.224-103.936-55.5008l-161.0752-213.077334c-12.8-16.9472-29.0816-26.333867-46.08-26.333866-16.8448 0-33.28 9.386667-45.994667 26.333866L152.661333 675.2768c-26.453333 34.986667-64 55.210667-102.997333 55.5008C131.754667 903.936 307.6608 1024 512 1024c282.760533 0 512-229.205333 512-511.9488a512.017067 512.017067 0 0 0-3.669333-58.9824c-11.264-11.093333-24.32-17.186133-37.802667-17.186133z m-299.434667-110.7968a53.521067 53.521067 0 0 1-38.8096-91.8528 53.504 53.504 0 1 1 38.8096 91.835733zM512.0512 0C229.256533 0 0 229.1712 0 512.0512c0 44.970667 6.4 88.32 17.322667 129.9456 9.693867 7.4752 20.445867 11.776 31.453866 11.776 16.964267 0 33.28-9.284267 46.08-26.146133L256 414.464c26.589867-35.3792 64.546133-55.552 103.850667-55.552 39.338667 0 77.226667 20.1728 103.8848 55.552l155.016533 204.919467 6.656 8.2432c12.8 16.810667 29.047467 26.026667 45.824 26.146133 16.725333-0.119467 33.024-9.386667 45.738667-26.146133l6.826666-8.2432 154.965334-204.919467c26.624-35.3792 64.512-55.552 103.799466-55.552 6.280533 0 12.544 0.682667 18.653867 1.621333C936.618667 151.722667 742.058667 0 512.0512 0z" fill="#3B7CF7" p-id="34331"></path></svg>