<?xml version="1.0" standalone="no"?><!DOCTYPE svg PUBLIC "-//W3C//DTD SVG 1.1//EN" "http://www.w3.org/Graphics/SVG/1.1/DTD/svg11.dtd"><svg t="1775210913363" class="icon" viewBox="0 0 1165 1024" version="1.1" xmlns="http://www.w3.org/2000/svg" p-id="20947" xmlns:xlink="http://www.w3.org/1999/xlink" width="227.5390625" height="200"><path d="M352.407128 372.698332L573.854931 244.870803a17.853846 17.853846 0 0 1 17.95972 0.036429l-0.072859-0.036429 221.447804 127.827529a17.935813 17.935813 0 0 1 8.925215 15.518946v255.652782a17.936951 17.936951 0 0 1-8.852356 15.446087l-0.072859 0.03643-221.447804 127.826391a17.853846 17.853846 0 0 1-17.959719-0.03643l0.072858 0.03643-221.447803-127.826391a17.935813 17.935813 0 0 1-8.925216-15.518946V388.21614a17.997287 17.997287 0 0 1 8.852357-15.482517l0.072859-0.036429z m806.049423 116.460402L893.951413 28.960275C884.334037 12.313155 866.556465 0 847.323992 0H318.346729c-19.239304 0-37.011184 12.276725-46.628559 28.960275L7.213031 488.139848a54.785341 54.785341 0 0 0 0.113842 54.530335l-0.145717-0.255006 264.574582 456.486069c9.580946 16.61183 27.357379 25.098754 46.592129 25.098754h529.084275c19.197182 0 36.901896-8.269485 46.592129-24.880177l264.506277-457.211243a51.8892 51.8892 0 0 0-0.113842-52.967284l0.145718 0.255006zM939.44952 710.461959a19.346315 19.346315 0 0 1-9.799522 16.355685l-0.113842 0.036429-337.029345 194.38186a18.789628 18.789628 0 0 1-9.508087 2.513632 19.180106 19.180106 0 0 1-9.617375-2.586491l0.113842 0.03643-337.2206-194.38186a19.406652 19.406652 0 0 1-9.945241-16.393253V321.516091a19.295087 19.295087 0 0 1 9.904257-16.429682L573.126342 110.705687a19.125462 19.125462 0 0 1 19.052603 0l337.217185 194.41829a19.428282 19.428282 0 0 1 10.018099 16.393253v0.036429z" fill="#4B32C3" p-id="20948"></path></svg>