<?xml version="1.0" standalone="no"?><!DOCTYPE svg PUBLIC "-//W3C//DTD SVG 1.1//EN" "http://www.w3.org/Graphics/SVG/1.1/DTD/svg11.dtd"><svg t="1775211280150" class="icon" viewBox="0 0 1024 1024" version="1.1" xmlns="http://www.w3.org/2000/svg" p-id="28460" xmlns:xlink="http://www.w3.org/1999/xlink" width="200" height="200"><path d="M972.8 50.0736a51.2 51.2 0 0 1 51.2 51.2v819.2a51.2 51.2 0 0 1-51.2 51.2H51.2a51.2 51.2 0 0 1-51.2-51.2v-819.2a51.2 51.2 0 0 1 51.2-51.2h921.6zM578.2528 367.1296a25.6 25.6 0 0 0-31.36 18.0992l-119.2448 445.1072a25.6 25.6 0 1 0 49.4592 13.2352l119.2448-445.1072a25.6 25.6 0 0 0-18.0992-31.3344z m-289.152 84.352a25.6 25.6 0 0 0-36.1984 0l-144.8192 144.8192a25.6 25.6 0 0 0 0 36.1984l144.8192 144.8192a25.6 25.6 0 1 0 36.1984-36.1984L162.3808 614.4l126.72-126.72a25.6 25.6 0 0 0 0-36.1984z m445.7984 0a25.6 25.6 0 0 0 0 36.1984l126.72 126.72-126.72 126.72a25.6 25.6 0 1 0 36.1984 36.1984l144.8192-144.8192a25.6 25.6 0 0 0 0-36.1984l-144.8192-144.8192a25.6 25.6 0 0 0-36.1984 0zM947.2 229.2736H76.8a25.6 25.6 0 1 0 0 51.2h870.4a25.6 25.6 0 1 0 0-51.2z m-832-128a38.4 38.4 0 1 0 0 76.8 38.4 38.4 0 0 0 0-76.8z m128 0a38.4 38.4 0 1 0 0 76.8 38.4 38.4 0 0 0 0-76.8z m128 0a38.4 38.4 0 1 0 0 76.8 38.4 38.4 0 0 0 0-76.8z" fill="#0052CC" p-id="28461"></path></svg>