<?xml version="1.0" standalone="no"?><!DOCTYPE svg PUBLIC "-//W3C//DTD SVG 1.1//EN" "http://www.w3.org/Graphics/SVG/1.1/DTD/svg11.dtd"><svg t="1775210029135" class="icon" viewBox="0 0 1024 1024" version="1.1" xmlns="http://www.w3.org/2000/svg" p-id="5483" xmlns:xlink="http://www.w3.org/1999/xlink" width="200" height="200"><path d="M256 128a128 128 0 0 0-128 128v512a128 128 0 0 0 128 128h512a128 128 0 0 0 128-128V256a128 128 0 0 0-128-128H256z m312.917333 557.013333c30.72 24.746667 61.354667 36.906667 91.989334 36.608 18.773333 0 33.194667-3.413333 43.178666-10.325333a32 32 0 0 0 14.549334-28.16 41.429333 41.429333 0 0 0-14.506667-31.914667c-10.026667-8.746667-28.970667-17.493333-56.832-26.282666-33.450667-9.685333-59.306667-22.186667-77.44-37.546667-17.834667-15.36-26.88-36.778667-27.221333-64.298667 0-25.984 11.264-47.701333 33.792-65.237333 21.930667-17.493333 49.92-26.282667 84.053333-26.282667 47.530667 0 85.717333 11.562667 114.474667 34.730667l-32.853334 51.157333a110.805333 110.805333 0 0 0-39.893333-19.712 137.002667 137.002667 0 0 0-40.362667-7.04c-16.213333 0-29.226667 2.986667-38.954666 8.917334-9.685333 5.973333-14.506667 13.781333-14.506667 23.466666 0 10.666667 5.930667 19.712 17.792 27.221334 11.946667 7.210667 32.256 15.189333 61.013333 23.936 34.730667 10.325333 59.477333 24.106667 74.154667 41.301333 14.72 17.194667 22.058667 39.125333 22.058667 65.706667 0 27.221333-10.453333 50.688-31.445334 70.4-20.650667 19.413333-50.688 29.568-90.112 30.506666-51.626667 0-94.805333-15.488-129.536-46.464l36.608-50.688z m-235.946666 27.221334c10.026667 6.272 22.058667 9.386667 36.138666 9.386666 14.72 0 26.88-4.224 36.608-12.672 9.685333-8.746667 14.549333-23.936 14.549334-45.525333v-226.218667h63.36v238.421334c-0.938667 36.906667-11.562667 63.530667-31.914667 79.786666a105.216 105.216 0 0 1-38.016 20.650667 140.629333 140.629333 0 0 1-39.893333 6.101333c-23.466667 0-44.288-4.053333-62.421334-12.202666-19.413333-8.746667-35.669333-24.234667-48.810666-46.464l44.117333-36.138667c8.106667 10.965333 16.896 19.242667 26.282667 24.874667z" fill="#f7df1e" p-id="5484"></path></svg>