<?xml version="1.0" standalone="no"?><!DOCTYPE svg PUBLIC "-//W3C//DTD SVG 1.1//EN" "http://www.w3.org/Graphics/SVG/1.1/DTD/svg11.dtd"><svg t="1775212154284" class="icon" viewBox="0 0 1024 1024" version="1.1" xmlns="http://www.w3.org/2000/svg" p-id="44902" xmlns:xlink="http://www.w3.org/1999/xlink" width="200" height="200"><path d="M869.36 493.496c0 202.387-160.4 366.456-358.27 366.456-197.864 0-358.268-164.07-358.268-366.456 0-202.394 160.407-366.463 358.267-366.463 197.87 0 358.27 164.069 358.27 366.463" fill="#D33833" p-id="44903"></path><path d="M167.422 584.253S141.485 202.1 493.617 191.18l-24.567-40.945-191.076 64.15-54.588 62.78-47.772 91.449-27.299 106.457 8.19 70.97" fill="#EF3D3A" p-id="44904"></path><path d="M265.707 243.504c-62.86 64.317-101.757 153.119-101.757 251.36 0 98.22 38.898 187.032 101.757 251.339 62.891 64.3 149.56 103.984 245.38 103.984s182.497-39.68 245.382-103.987c62.852-64.304 101.76-153.12 101.76-251.338 0-98.236-38.908-187.038-101.76-251.358-62.885-64.29-149.565-103.971-245.383-103.978-95.818 0.007-182.488 39.688-245.376 103.978z m-15.91 518.251c-66.806-68.316-108.105-162.739-108.105-266.89 0-104.171 41.299-198.58 108.105-266.907 66.79-68.34 159.24-110.696 261.29-110.683 102.048-0.013 194.508 42.344 261.288 110.683 66.81 68.326 108.115 162.746 108.109 266.907 0.006 104.151-41.3 198.57-108.109 266.89-66.776 68.336-159.24 110.687-261.289 110.687-102.048 0-194.5-42.354-261.29-110.683" fill="#231F20" p-id="44905"></path><path d="M661.905 495.527l-54.598 8.189-73.701 8.189-47.772 1.362-46.402-1.362-35.488-10.921-31.39-34.12-24.567-69.606-5.46-15.015-32.757-10.915-19.106-31.393-13.65-45.04 15.015-39.582 35.485-12.284 28.662 13.653 13.65 30.024 16.377-2.732 5.458-6.82-5.458-31.393-1.366-39.583 8.19-54.59-0.322-31.185 24.889-39.785 43.673-31.394 76.434-32.756 84.618 12.284 73.702 53.228 34.122 54.592 21.838 39.582 5.458 98.269-16.379 84.622-30.027 75.064-28.662 39.582" fill="#F0D6B7" p-id="44906"></path><path d="M615.496 731.643l-195.174 8.189v32.756L436.7 887.234l-8.189 9.555L292.03 850.38l-9.555-16.378-13.649-154.222-31.387-92.811-6.826-21.836 109.186-75.064 34.122-13.652 30.024 36.85 25.933 23.205 30.028 9.551 13.646 4.095 16.378 70.973 12.284 15.012 31.393-10.918-21.839 42.311 118.741 55.958-15.012 8.189" fill="#335061" p-id="44907"></path><path d="M292.03 255.313l35.48-12.284 28.663 13.653 13.652 30.024 16.378-2.732 4.095-16.378-8.19-31.387 8.19-75.07-6.827-40.945 24.568-28.662 53.228-42.308-15.012-20.472-75.067 36.85-31.394 24.567-17.74 38.214-27.3 36.85-8.188 43.677 5.463 46.403" fill="#6D6B6D" p-id="44908"></path><path d="M347.987 127.02s20.472-50.497 102.363-75.064 4.094-17.747 4.094-17.747l-88.717 34.125-34.122 34.119-15.008 27.299 31.386-2.732m-40.941 118.741s-28.662-95.543 80.524-109.19l-4.095-16.377-75.063 17.747-21.839 70.97 5.46 46.402 15.01-9.552" fill="#DCD9D8" p-id="44909"></path><path d="M350.715 372.691l17.872-17.315s8.065 0.937 9.427 10.489c1.363 9.558 5.457 95.543 64.143 141.948 5.356 4.236-43.67-6.83-43.67-6.83l-43.677-68.237m247.043-85.985s3.184-41.37 14.325-38.19c11.14 3.18 11.14 14.324 11.14 14.324s-27.057 17.502-25.465 23.866M715.13 195.264s-22.496 4.75-24.566 24.567c-2.074 19.821 24.567 4.095 28.661 2.732m-169.24-25.933s-30.028 4.095-30.028 23.201 34.122 17.744 43.677 9.555M364.362 285.343s-51.863-31.393-57.324-1.362c-5.457 30.024-17.744 51.863 8.19 83.253l-17.741-5.457-16.378-42.311-5.458-40.946 31.387-32.759 35.488 2.732L363 264.87l1.363 20.472m24.567-85.984S412.133 79.255 529.51 56.05c96.638-19.1 147.4 4.095 166.51 25.93 0 0-85.985-102.36-167.875-70.97-81.89 31.394-141.943 88.718-140.58 125.562 2.326 62.76 1.363 62.787 1.363 62.787M705.576 95.626S666 94.264 664.63 129.752c0 0-0.004 5.457 2.728 10.914 0 0 31.397-35.485 50.5-16.378" fill="#F7E4CD" p-id="44910"></path><path d="M532.263 144.364s-6.813-54.47-53.255-22.801c-30.024 20.472-27.292 49.134-21.835 54.591 5.457 5.46 3.973 16.457 8.13 8.91 4.153-7.547 2.784-32.114 17.8-38.934 15.015-6.826 39.628-14.452 49.16-1.766" fill="#F7E4CD" p-id="44911"></path><path d="M403.944 513.267l-128.293 57.324s53.23 211.552 25.93 277.064l-19.11-6.823-1.362-80.524-35.482-152.86-15.015-42.315 133.75-90.076 39.582 38.21m13.194 117.012l18.2 22.208v81.89h-21.839s-2.729-57.322-2.729-64.149c0-6.826 2.729-31.393 2.729-31.393m4.091 107.826l-61.417 2.726 17.747 12.283 43.67 6.827" fill="#49728B" p-id="44912"></path><path d="M627.78 733.009l50.5-1.363 12.284 125.564-51.866 6.823L627.78 733.01" fill="#335061" p-id="44913"></path><path d="M641.43 733.009l76.43-4.095s31.39-79.162 31.39-83.256 27.298-114.647 27.298-114.647l-61.417-64.143-12.284-10.92-32.756 32.755v126.93L641.429 733.01" fill="#335061" p-id="44914"></path><path d="M675.548 723.454l-47.768 9.555 6.823 38.22c17.74 8.189 47.772-13.653 47.772-13.653m-5.46-272.964l95.539 70.97 2.729-32.756-72.336-66.875-25.933 28.661" fill="#49728B" p-id="44915"></path><path d="M464.959 1001.894L436.7 887.231l-14.052-84.602-2.326-62.8 127.893-6.807 79.565-0.013-7.233 143.32 12.284 110.553-1.366 20.472-103.722 8.19-62.784-13.65" fill="#FFFFFF" p-id="44916"></path><path d="M610.036 731.643s-6.823 141.945 13.65 242.942c0 0-40.946 25.936-101 32.756l114.646-4.094 13.65-8.19-16.379-223.832-4.095-47.775" fill="#DCD9D8" p-id="44917"></path><path d="M692.886 846.302l53.229-15.012 100.997-5.457 15.015-46.406-27.299-80.527-31.387-4.095-43.677 13.65-41.905 20.46-22.244-4.082-17.338 6.813" fill="#FFFFFF" p-id="44918"></path><path d="M691.926 818.993s35.482-16.374 40.945-15.008l-15.012-75.07 17.744-6.824s12.284 70.97 12.284 79.158c0 0 76.426 4.095 83.253 4.095 0 0 16.378-31.39 12.283-64.146l15.013 43.673 1.365 24.568-21.838 32.756-24.567 5.46-40.945-1.366-13.647-17.74-47.768 6.823-15.015 5.46" fill="#DCD9D8" p-id="44919"></path><path d="M638.291 722.104l-30.024-76.433-31.393-45.04s6.823-19.106 16.378-19.106h31.393l30.024 10.917-2.725 50.5-13.653 79.162" fill="#FFFFFF" p-id="44920"></path><path d="M644.158 696.158s-38.217-73.698-38.217-84.616c0 0 6.82-16.378 16.378-12.283 9.555 4.094 30.028 15.009 30.028 15.009v-25.93l-46.406-9.558-31.39 4.094 53.229 125.567 10.918 1.37" fill="#DCD9D8" p-id="44921"></path><path d="M477.243 516.016l-37.81-4.111-35.489-10.921v12.283l17.338 19.123 54.595 24.567" fill="#FFFFFF" p-id="44922"></path><path d="M416.23 520.107s42.315 17.744 55.962 13.65l1.359 16.361-38.21-8.173-23.205-16.378 4.095-5.46" fill="#DCD9D8" p-id="44923"></path><path d="M692.739 586.173c-23.159-0.682-44.08-3.433-62.4-8.599 1.244-7.51-1.082-14.881 0.785-20.289 5.11-3.679 13.666-3.62 21.384-4.484-6.673-3.28-16.051-4.58-23.752-2.683-0.18-5.212-2.519-8.441-3.934-12.52 13.02-4.648 43.756-35.114 61.048-25.025 8.238 4.799 11.74 32.206 12.378 45.534 0.53 11.055-1.002 22.209-5.506 28.066M581.997 548.313c-0.063 1.753-0.138 3.518-0.207 5.287-7.229 4.75-18.903 4.69-26.84 8.684 11.7 0.51 20.908 3.328 28.874 7.3l-0.514 13.238c-13.253 9.073-25.36 22.585-40.968 31.095-7.377 4.023-33.27 14.38-41.122 12.546-4.442-1.029-4.841-6.542-6.617-11.737-3.783-11.124-12.49-28.835-13.25-45.58-0.97-21.15-3.102-56.603 19.693-52.246 18.39 3.508 39.78 11.982 54.015 19.762 8.7 4.756 13.735 10.636 26.936 11.651M595.161 573.552c-2.024-11.524-4.363-14.81-3.455-24.862 30.725-20.49 36.496 35.193 3.452 24.862" fill="#D33833" p-id="44924"></path><path d="M639.654 582.89s-9.555-13.649-2.729-17.744c6.824-4.094 13.65 0.004 17.744-6.823s0-10.92 1.363-19.11c1.363-8.189 8.192-9.555 15.015-10.917 6.824-1.366 25.934-4.095 28.662 2.728l-8.189-24.567L675.142 501l-51.866 30.024-2.732 15.016v30.024M496.35 627.93c-1.64-21.298-3.374-42.57-5.306-63.848-2.89-31.774 7.632-26.231 35.173-26.231 4.206 0 25.904 5.015 27.453 8.189 7.446 15.202-12.447 11.825 8.576 23.29 17.744 9.676 49.091-5.874 41.924-27.385-4.012-4.782-20.908-1.49-26.965-4.631l-31.986-16.582c-13.568-7.039-44.918-17.298-59.384-7.465-36.647 24.924 2.313 87.197 15.386 113.199" fill="#EF3D3A" p-id="44925"></path><path d="M532.263 144.364c-37.201-8.664-55.685 15.566-66.96 40.7-10.07-2.44-6.06-16.133-3.518-23.11 6.656-18.31 33.49-42.684 55.417-39.382 9.433 1.421 22.202 10.05 15.061 21.792m181.25 42.36l1.765 0.073c8.405 17.462 15.68 35.96 26.284 51.378-7.102 16.545-53.792 31.187-53.072 1.477 10.099-4.416 27.528-0.9 36.477-6.538-5.175-14.207-12.643-26.297-11.454-46.39m-162.206 0.456c7.977 14.622 10.574 29.985 21.911 41.037 5.107 4.975 15.035 11.039 10.112 24.875-1.15 3.262-9.555 10.537-14.406 11.966-17.728 5.234-59.027 1.08-45.04-21.017 14.655 0.685 34.361 9.52 45.318-1.123-8.418-13.45-23.417-40.061-17.895-55.738m155.55 148.608c-26.687 17.145-56.446 35.786-100.175 31.462-9.346-8.123-12.906-26.201-3.83-38.141 4.727 8.124 1.756 23.064 14.924 25.314 24.813 4.245 53.694-15.18 71.54-21.97 11.071-18.658-0.95-25.52-10.921-37.528-20.414-24.603-47.792-55.1-46.799-91.934 8.251-5.984 8.962 9.13 10.148 11.88 10.659 24.945 37.48 56.846 57.058 78.193 4.805 5.257 12.719 10.302 13.6 13.78 2.539 10.11-6.604 22.22-5.545 28.944m-351.834-18.049c-8.366-4.776-10.358-25.805-20.178-26.401-14.033-0.852-11.474 27.282-11.419 43.733-9.663-8.77-11.36-35.773-4.261-49.642-8.091-3.97-11.7 4.382-16.188 7.324 5.765-41.885 61.273-19.428 52.046 24.986m368.827 35.492c-12.42 23.646-29.994 49.687-66.449 50.444-0.74-7.635-1.31-19.257 0.04-23.856 27.869-2.676 45.072-16.86 66.41-26.588m-174.647 15.33c23.25 12.224 65.981 13.54 97.581 12.614 1.697 6.925 1.657 15.477 1.723 23.918-40.62 2.031-88.651-8.025-99.304-36.533m-4.415 22.799c16.073 40.365 71.333 35.72 117.935 34.607-2.05 5.24-6.499 11.432-12.025 13.669-14.936 6.076-56.12 10.688-76.852-0.321-13.148-6.99-21.593-22.782-28.796-32.039-3.479-4.475-20.8-15.893-0.262-15.92" fill="#231F20" p-id="44926"></path><path d="M704.917 614.028c-18.867 32.314-36.92 65.506-59.305 94.01 9.385-27.593 13.4-73.776 14.82-108.986 19.633-9.188 36.444 2.067 44.485 14.976" fill="#81B0C4" p-id="44927"></path><path d="M806.445 730.172c-21.124 4.225-35.966 24.757-56.573 23.44 11.324-15.965 31.17-22.697 56.573-23.44m9.32 33.057c-17.217 1.818-37.441 4.606-54.903 3.171 8.264-12.627 40.116-8.27 54.902-3.17m5.965 28.5c-19.349 0.42-43.402 0.033-61.794-1.506 10.878-11.688 49.245-4.337 61.794 1.507" fill="#231F20" p-id="44928"></path><path d="M668.509 869.73c2.774 24.301 12.411 48.924 11.202 75.535-10.698 3.61-16.846 6.768-31.18 6.748-1.012-22.618-4.036-57.196-3.132-78.759 7.05 0.468 17.446-5.038 23.11-3.525" fill="#DCD9D8" p-id="44929"></path><path d="M637.312 511.574c-9.716 6.341-17.99 14.262-27.322 21.033-20.695 1.022-31.986-1.435-47.188-13.316 0.248-0.953 1.775-0.527 1.834-1.7 22.15 9.873 50.31-4.02 72.676-6.017" fill="#F0D6B7" p-id="44930"></path><path d="M521.028 662.57c6.086-26.372 29.932-40.031 51.587-54.556 22.353 28.367 35.947 64.851 50.916 100.054-35.37-10.662-71.506-27.96-102.503-45.498" fill="#81B0C4" p-id="44931"></path><path d="M645.4 873.254c-0.905 21.56 2.119 56.14 3.13 78.759 14.338 0.02 20.483-3.138 31.181-6.748 1.21-26.611-8.424-51.234-11.202-75.536-5.664-1.513-16.057 3.993-23.11 3.525zM422.19 750.628c9.453 86.899 23.145 159.948 48.256 236.896 55.73 16.922 122.917 18.396 172.179 3.128-9.047-43.431-5.094-96.306-10.384-142.653-3.98-34.836-1.949-69.885-7.412-105.426-59.689-12.417-144.062-2.902-202.64 8.055z m216.753-7.508c-0.504 37.32 1.67 74.134 4.52 111.502 14.331-2.152 24.057-3.59 37.372-6.508-4.324-35.973-3.793-76.453-12.601-108.276-10.178 0.099-19.143-0.118-29.29 3.282z m72.7-6.017c-6.804-1.56-14.721-0.059-21.22 0.066 3.053 30.424 10.465 63.992 13.073 95.926 10.226 0.318 15.687-4.504 24.098-6.125 0.45-28.03-2.45-66.65-15.952-89.867z m110.076 100.575c21.311-5.176 34.712-31.283 28.75-58.087-4-18.016-11.124-51.938-18.75-63.465-5.633-8.523-20.908-19.686-33.106-11.874-19.844 12.71-54.798 16.394-69.266 31.773 7.255 24.158 9.506 57.34 12.5 87.95 24.786 1.547 55.289-6.82 75.902 2.058-14.39 4.661-33.067 4.7-45.501 11.494 10.164 4.907 33.955 3.918 49.471 0.15z m-198.188-129.61c-14.97-35.203-28.563-71.683-50.916-100.054-21.655 14.525-45.501 28.184-51.59 54.556 31 17.537 67.136 34.836 102.506 45.498z m36.9-109.016c-1.418 35.207-5.434 81.393-14.819 108.987 22.386-28.505 40.438-61.693 59.305-94.01-8.041-12.906-24.852-24.165-44.486-14.977z m-41.83-14.861c-8.48-0.917-15.676 9.748-26.705 5.136-2.526 2.794-4.822 5.82-7.397 8.546 24.354 29.35 35.42 70.99 54.231 105.481 10.092-33.132 8.93-69.43 11.154-105.592-13.87 0.88-21.564-12.543-31.282-13.574z m-26.895-35.501c-0.908 10.053 1.431 13.338 3.455 24.862 33.041 10.331 27.273-45.351-3.455-24.862z m-36.645-12.032c-14.236-7.78-35.625-16.247-54.015-19.758-22.798-4.36-20.659 31.092-19.693 52.246 0.76 16.745 9.467 34.456 13.25 45.58 1.776 5.195 2.175 10.708 6.617 11.74 7.852 1.828 33.745-8.526 41.125-12.549 15.605-8.51 27.712-22.022 40.965-31.095 0.174-4.416 0.34-8.825 0.518-13.237-7.97-3.973-17.178-6.79-28.875-7.301 7.934-3.993 19.608-3.934 26.837-8.684 0.072-1.769 0.144-3.534 0.207-5.287-13.201-1.015-18.232-6.895-26.936-11.655zM419.068 511.96c-11.816 11.996 33.142 28.347 47.46 29.229-0.082-7.59 4.324-14.747 3.44-20.195-17.004-2.984-39.347-1.015-50.9-9.037z m145.568 5.634c-0.06 1.17-1.586 0.744-1.834 1.697 15.202 11.884 26.496 14.34 47.188 13.316 9.332-6.771 17.606-14.692 27.322-21.033-22.366 1.998-50.526 15.89-72.676 6.017z m133.612 40.513c-0.639-13.328-4.14-40.735-12.378-45.534-17.292-10.092-48.027 20.377-61.048 25.026 1.415 4.078 3.754 7.307 3.93 12.519 7.705-1.893 17.083-0.596 23.756 2.683-7.718 0.864-16.277 0.805-21.38 4.484-1.874 5.408 0.458 12.778-0.787 20.29 18.318 5.165 39.242 7.916 62.4 8.598 4.505-5.857 6.038-17.01 5.504-28.066z m-299.073-34.544c-3.711-2.647-28.813-35.308-32.252-33.952-45.423 17.914-87.898 48.888-125.849 78.185 36.186 77.649 50.792 172.78 53.373 264.474 41.456 19.385 77.864 47.335 134.117 50.254-6.509-46.055-12.451-87.144-16.15-130.504-14.13-5.961-34.406 0.269-47.633-1.847-0.115-15.94 20.2-6.98 21.89-17.698 1.278-8.11-11.176-8.723-7.12-21.488 10.34 3.757 15.768 12.057 26.794 15.176 10.08-22.045-0.137-61.051 1.314-79.477 0.275-3.459 1.73-19.162 9.476-16.41 6.86 2.44-0.393 41.773 0.36 59.213 0.688 16.067-1.939 31.61 4.567 41.698 54.355-7.4 109.592-12.182 168.405-13.797-12.938-5.548-28.31-10.802-45.16-20.302-9.14-5.152-37.932-15.867-40.572-24.544-4.206-13.826 11.039-21.193 13.646-33.044-27.44 14.963-32.792-14.348-39.284-35.108-5.88-18.806-9.228-32.855-10.67-43.7-23.636-11.268-48.907-22.68-69.252-37.13zM674.24 493.56c37.847-18.35 44.666 68.588 29.835 96.595 2.292 8.353 10.177 11.55 13.397 19.06-21.121 37.834-44.581 73.145-66.128 110.536 16.03-9.98 38.927-1.785 57.791-9.253 6.896-2.729 11.884-18.514 17.106-31.142 14.36-34.74 29.434-78.54 36.143-111.692 1.513-7.556 5.64-24.016 4.717-30.738-1.651-12.038-17.984-20.964-26.29-28.41-15.307-13.747-24.944-25.847-40.913-38.704-6.47 9.558-20.364 15.978-25.658 23.748z m-361.618-335.62c-18.035 19.844-14.259 57.023-12.077 83.473 32.596-20.505 75.863 1.622 75.454 36.497 15.559-0.413 5.814-19.437 2.997-31.691-9.198-40.028 15.5-83.516 1.12-120.12-27.918 2.116-50.854 13.518-67.494 31.842z m129.033-115.16c-40.83 11.57-93.148 41.23-109.923 77.91 12.988-1.89 22.006-8.44 34.82-9.25 4.845-0.314 11.19 2.031 16.755 0.645 11.094-2.751 20.453-27.62 28.822-36.873 8.156-9.038 17.96-12.9 24.672-21.138 4.31-2.08 10.685-1.936 10.927-8.408-1.867-1.998-3.832-3.521-6.073-2.886z m212.519 10.882C611.8 29.753 540.075 11.77 495 34.24c-36.37 18.138-85.533 48.142-102.298 86.162 15.66 36.69-4.635 70.311-5.929 107.565-0.688 19.817 9.333 37.122 10.099 58.699-5.359 8.844-21.727 9.932-33.06 9.326-3.814-19.087-10.493-40.543-30.15-42.698-27.813-3.043-48.151 19.978-49.412 44.034-1.497 28.288 21.727 75.175 54.644 71.92 12.716-1.258 15.837-14.004 29.693-13.873 7.508 14.983-11.582 19.687-13.548 30.401-0.51 2.768 1.582 13.587 2.8 18.658 5.982 24.705 19.307 56.675 32.43 75.48 16.646 23.853 49.36 27.45 84.55 29.788 6.289-13.541 29.44-12.427 44.528-8.886-18.081-7.16-34.892-24.522-48.823-39.89-16.001-17.63-32.212-36.543-33.031-59.584 30.24 41.95 55.227 78.588 110.211 97.04 41.61 13.954 90.204-6.394 122.174-28.845 13.266-9.332 21.184-24.138 30.614-37.69 35.282-50.752 51.745-123.192 48.125-193.405-1.49-28.956-1.425-57.814-11.14-77.294-10.154-20.371-44.5-38.597-64.602-20.172-3.727-19.807 16.716-32.058 40.733-24.93-17.125-22.098-35.095-48.65-59.433-62.384z m78.945 653.35c33.114-16.46 94.98-44.306 115.74 0.063 7.663 16.351 16.648 43.998 20.618 60.88 5.601 23.817-6.077 73.878-30.562 81.87-21.619 7.057-46.85 6.627-72.895 1.396-3.066-2.551-6.483-6.996-8.87-11.631-18.596-0.721-36.013 0.995-50.704 8.64 1.392 13.755-7.91 15.963-16.63 18.796-6.466 25.635 12.935 59.112 8.29 82.487-3.311 16.653-23.8 19.227-38.862 22.343-0.49 9.256 0.662 16.98 1.687 24.81-3.439 12.689-18.887 19.912-33.519 21.68-48.148 5.788-121.253 8.39-167.564-8.264-12.922-31.698-23.103-70.252-33.87-106.448-45.167 4.825-81.694-19.49-116.137-35.419-11.923-5.526-28.416-8.572-32.87-18.062-4.321-9.188-2.552-26.8-3.623-43.434-2.729-42.492-5.064-83.473-16.28-126.976-5.041-19.523-13.823-36.75-19.949-55.561-5.66-17.433-15.552-38.98-18.133-56.364-3.826-25.766 20.44-27.2 35.953-38.364 23.98-17.269 42.809-26.817 68.781-42.4 7.694-4.615 30.892-16.295 33.532-21.677 5.248-10.666-9.004-25.704-12.814-34.067-6.027-13.22-9.171-24.452-10.033-37.496-21.79-3.445-38.305-16.41-48.282-31.033-16.506-24.2-27.951-68.968-13.673-103.021 1.12-2.683 6.705-7.957 7.53-12.074 1.625-8.114-3.059-18.9-3.35-27.525-1.5-44.263 7.488-82.398 37.286-95.746 12.097-48.188 55.39-64.212 96.182-88.16 15.248-8.949 32.055-14.672 49.413-21.059C521.78-7.719 617.324-3.402 669.004 35.683c21.913 16.574 56.943 51.571 69.472 76.908 33.09 66.891 30.742 178.685 7.596 260.054-3.112 10.924-7.625 26.985-13.928 40.107-4.39 9.162-18.048 27.499-16.388 35.59 1.707 8.365 31.135 30.708 37.444 36.794 11.363 10.96 32.95 25.508 34.695 39.34 1.88 14.718-6.486 34.853-10.72 49.06-14.168 47.4-27.991 91.219-44.055 133.477" fill="#231F20" p-id="44932"></path><path d="M512.21 378.885c1.795-2.391 11.67-6.02 25.49 0.632 0 0-16.378 2.732-15.015 30.038l-6.823-1.37s-7.056-24.76-3.652-29.3" fill="#F7E4CD" p-id="44933"></path><path d="M631.874 613.59a7.508 7.508 0 1 1-15.012-0.007 7.508 7.508 0 0 1 15.012 0.007m7.508 34.803a7.508 7.508 0 1 1-15.015-0.007 7.508 7.508 0 0 1 15.012 0.007" fill="#1D1919" p-id="44934"></path></svg>