<?xml version="1.0" standalone="no"?><!DOCTYPE svg PUBLIC "-//W3C//DTD SVG 1.1//EN" "http://www.w3.org/Graphics/SVG/1.1/DTD/svg11.dtd"><svg t="1775212176491" class="icon" viewBox="0 0 1365 1024" version="1.1" xmlns="http://www.w3.org/2000/svg" p-id="45500" xmlns:xlink="http://www.w3.org/1999/xlink" width="266.6015625" height="200"><path d="M450.026667 577.877333c-50.965333 14.464-84.405333 39.824-106.432 65.162667 21.098667-18.458667 49.36-35.408 87.477333-46.213333 38.992-11.050667 72.256-10.970667 99.744-5.664v-21.493334c-23.450667-2.144-50.330667-0.437333-80.789333 8.208zM341.264 397.2l-189.28 49.866667s3.445333 4.874667 9.834667 11.376l160.490666-42.293334s-2.277333 29.306667-22.026666 55.52c37.36-28.261333 40.981333-74.469333 40.981333-74.469333z m158.448 444.853333c-266.378667 71.744-407.306667-236.96-449.973333-397.184-19.712-73.962667-28.32-129.973333-30.613334-166.122666a61.237333 61.237333 0 0 1 0.133334-9.813334C5.445333 269.76-1.173333 276.944 0.170667 297.706667c2.293333 36.122667 10.901333 92.133333 30.613333 166.117333 42.650667 160.202667 183.594667 468.906667 449.973333 397.162667 57.978667-15.621333 101.536-44.069333 134.24-80.389334-30.144 27.221333-67.861333 48.656-115.285333 61.456zM549.76 208.266667v18.96h104.48c-2.138667-6.714667-4.298667-12.762667-6.442667-18.96H549.76z" fill="#2D4552" p-id="45501"></path><path d="M677.6 364.4c46.986667 13.349333 71.84 46.293333 84.976 75.445333l52.394667 14.88s-7.146667-102.037333-99.44-128.250666c-86.341333-24.533333-139.472 47.973333-145.936 57.354666 25.12-17.893333 61.792-32.544 108.005333-19.429333z m417.050667 75.914667c-86.421333-24.64-139.530667 48.016-145.898667 57.264 25.136-17.872 61.792-32.528 107.984-19.354667 46.917333 13.365333 71.744 46.272 84.922667 75.445333l52.464 14.933334s-7.258667-102.053333-99.472-128.288z m-52.053334 269.029333l-435.829333-121.84s4.72 23.92 22.821333 54.896l366.949334 102.581333c30.208-17.477333 46.058667-35.637333 46.058666-35.637333z m-302.16 262.261333C395.344 879.082667 437.061333 439.392 492.901333 231.04c22.992-85.866667 46.629333-149.685333 66.234667-192.469333-11.696-2.405333-21.386667 3.754667-30.954667 23.221333C507.36 104 480.746667 172.730667 454.997333 268.944c-55.824 208.352-97.546667 648.032 247.530667 740.554667 162.650667 43.573333 289.365333-22.650667 383.818667-126.661334-89.653333 81.205333-204.128 126.736-345.909334 88.768z" fill="#2D4552" p-id="45502"></path><path d="M549.765333 739.013333v-88.730666l-246.522666 69.909333s18.213333-105.845333 146.784-142.314667c38.992-11.050667 72.261333-10.976 99.738666-5.669333V208.266667h123.44c-13.44-41.530667-26.442667-73.504-37.365333-95.722667-18.064-36.773333-36.581333-12.394667-78.618667 22.768-29.610667 24.736-104.442667 77.509333-217.056 107.850667-112.608 30.368-203.653333 22.314667-241.637333 15.733333-53.850667-9.290667-82.016-21.12-79.381333 19.845333 2.293333 36.128 10.896 92.144 30.613333 166.122667 42.645333 160.208 183.594667 468.906667 449.973333 397.162667 69.578667-18.746667 118.688-55.808 152.730667-103.04h-102.698667v0.021333z m-397.802666-291.946666l189.301333-49.866667s-5.514667 72.821333-76.48 91.530667c-70.986667 18.688-112.821333-41.664-112.821333-41.664z" fill="#E2574C" p-id="45503"></path><path d="M1262.208 212.48c-49.205333 8.624-167.258667 19.370667-313.152-19.733333-145.936-39.082667-242.757333-107.434667-281.12-139.562667-54.384-45.546667-78.304-77.205333-101.845333-29.322667-20.810667 42.229333-47.429333 110.96-73.189334 207.178667-55.818667 208.352-97.541333 648.026667 247.536 740.549333 344.997333 92.442667 528.672-309.216 584.496-517.584 25.76-96.197333 37.056-169.04 40.16-216.010666 3.546667-53.205333-32.997333-37.76-102.88-25.514667zM568.896 384.858667s54.378667-84.581333 146.613333-58.362667c92.293333 26.213333 99.44 128.245333 99.44 128.245333l-246.053333-69.882666z m225.146667 379.536c-162.234667-47.52-187.253333-176.890667-187.253334-176.890667l435.808 121.845333c0-0.021333-87.968 101.973333-248.554666 55.04z m154.08-265.866667s54.309333-84.517333 146.528-58.229333c92.213333 26.256 99.472 128.288 99.472 128.288l-245.994667-70.058667z" fill="#2EAD33" p-id="45504"></path><path d="M463.616 674.72l-160.373333 45.450667s17.418667-99.248 135.562666-138.576L348 240.784l-7.845333 2.384c-112.613333 30.368-203.653333 22.314667-241.637334 15.733333-53.850667-9.285333-82.021333-21.12-79.386666 19.850667 2.293333 36.128 10.901333 92.138667 30.613333 166.117333 42.650667 160.208 183.6 468.906667 449.973333 397.162667l7.845334-2.464-43.941334-164.853333zM151.962667 447.066667l189.301333-49.872s-5.514667 72.821333-76.48 91.530666c-70.986667 18.688-112.821333-41.658667-112.821333-41.658666z" fill="#D65348" p-id="45505"></path><path d="M801.36 766.176l-7.338667-1.786667c-162.234667-47.52-187.253333-176.885333-187.253333-176.885333l224.730667 62.816 118.976-457.194667-1.44-0.373333c-145.930667-39.088-242.752-107.44-281.12-139.573333-54.378667-45.546667-78.304-77.2-101.845334-29.317334-20.789333 42.229333-47.408 110.96-73.168 207.178667-55.818667 208.352-97.541333 648.026667 247.536 740.544l7.072 1.6 53.850667-207.008zM568.896 384.853333s54.378667-84.581333 146.613333-58.362666c92.293333 26.213333 99.44 128.245333 99.44 128.245333L568.896 384.853333z" fill="#1D8D22" p-id="45506"></path><path d="M471.786667 672.384l-43.008 12.208c10.165333 57.28 28.074667 112.250667 56.181333 160.810667 4.896-1.077333 9.749333-2.005333 14.730667-3.370667 13.061333-3.52 25.173333-7.888 36.832-12.645333-31.413333-46.613333-52.186667-100.288-64.730667-157.002667z m-16.789334-403.434667c-22.101333 82.490667-41.877333 201.226667-36.432 320.32 9.738667-4.229333 20.032-8.170667 31.466667-11.413333l7.957333-1.781333c-9.706667-127.210667 11.274667-256.837333 34.912-345.034667a1723.066667 1723.066667 0 0 1 17.989334-62.421333 558.325333 558.325333 0 0 1-31.861334 18.917333 1634.437333 1634.437333 0 0 0-24.032 81.413333z" fill="#C04B41" p-id="45507"></path></svg>