<?xml version="1.0" standalone="no"?><!DOCTYPE svg PUBLIC "-//W3C//DTD SVG 1.1//EN" "http://www.w3.org/Graphics/SVG/1.1/DTD/svg11.dtd"><svg t="1775211058147" class="icon" viewBox="0 0 1024 1024" version="1.1" xmlns="http://www.w3.org/2000/svg" p-id="23599" xmlns:xlink="http://www.w3.org/1999/xlink" width="200" height="200"><path d="M518.4 1021.056C616.192 654.464 613.184 652.8 684.032 391.424l17.024 10.304a10.304 10.304 0 0 0 16.768-10.112V266.88c18.88-68.864 33.6-122.048 37.888-137.984h76.8L960 252.416l-83.712 75.648 63.296 71.616-417.216 621.376c-2.048 3.52-4.928 2.752-4.224 0z m45.312-790.144a6.4 6.4 0 0 1 6.848 4.928v64a6.4 6.4 0 0 1-6.848 4.8H460.8a6.4 6.4 0 0 1-7.04-5.056v-64a6.4 6.4 0 0 1 7.04-4.736h102.912zM691.2 160L577.536 228.736a13.312 13.312 0 0 1 2.112 7.104v64a12.8 12.8 0 0 1-3.648 8.32L690.88 377.6a8.704 8.704 0 0 0 14.208-8.576V168.768a8.704 8.704 0 0 0-14.208-8.768zM444.608 299.712v-64a13.44 13.44 0 0 1 2.112-7.104L333.376 160a8.704 8.704 0 0 0-14.208 8.576v200.384a8.768 8.768 0 0 0 14.272 8.64L448 308.416a13.888 13.888 0 0 1-3.2-8.768z m57.088 721.344H505.6C408.064 654.464 410.88 652.8 340.096 391.424l-17.024 10.304a10.304 10.304 0 0 1-16.832-10.112V266.88c-18.88-68.864-33.6-122.112-37.888-138.048h-76.8L64 252.416l83.712 75.648-63.296 71.744 417.216 621.248z m7.168-647.872a32.448 32.448 0 1 1-30.976 32.384 32 32 0 0 1 30.976-32.384z m0 192.512a32.448 32.448 0 1 1-30.976 32.384 32 32 0 0 1 30.976-32.384z m0 192.576a32.448 32.448 0 1 1-30.976 32.384 32 32 0 0 1 30.976-32.384z" fill="#2c2c2c" p-id="23600" data-spm-anchor-id="a313x.search_index.0.i32.d39f3a814gNsdd" class="selected"></path></svg>